<svg xmlns="http://www.w3.org/2000/svg" xmlns:xlink="http://www.w3.org/1999/xlink" width="500" zoomAndPan="magnify" viewBox="0 0 375 374.999991" height="500" preserveAspectRatio="xMidYMid meet" version="1.0"><defs><g/><clipPath id="e24b048559"><path d="M 0.203125 138.539062 L 374.984375 138.539062 L 374.984375 236.460938 L 0.203125 236.460938 Z M 0.203125 138.539062 " clip-rule="nonzero"/></clipPath><clipPath id="bb5a690514"><path d="M 0.203125 138.539062 L 374.980469 138.539062 L 374.980469 236.460938 L 0.203125 236.460938 Z M 0.203125 138.539062 " clip-rule="nonzero"/></clipPath><clipPath id="561af0dd8f"><path d="M 0.203125 147.742188 L 191.347656 147.742188 L 191.347656 227.257812 L 0.203125 227.257812 Z M 0.203125 147.742188 " clip-rule="nonzero"/></clipPath><clipPath id="36961c5736"><path d="M 312.816406 166 L 361.929688 166 L 361.929688 208.953125 L 312.816406 208.953125 Z M 312.816406 166 " clip-rule="nonzero"/></clipPath><clipPath id="81a3023d3b"><path d="M 314.761719 172.898438 C 310.785156 179.445312 313.585938 185.824219 317.105469 189.207031 L 337.691406 208.953125 L 357.839844 189.277344 C 361.113281 185.636719 362.367188 181.777344 361.671875 177.476562 C 360.707031 171.527344 355.808594 166.914062 349.75 166.253906 C 346.039062 165.855469 342.449219 166.90625 339.652344 169.234375 C 338.898438 169.859375 338.222656 170.558594 337.636719 171.320312 C 336.941406 170.453125 336.125 169.660156 335.199219 168.957031 C 331.980469 166.511719 327.882812 165.539062 323.945312 166.296875 C 320.21875 167.015625 316.871094 169.421875 314.761719 172.898438 Z M 314.761719 172.898438 " clip-rule="nonzero"/></clipPath></defs><g clip-path="url(#e24b048559)"><path fill="#ffffff" d="M 0.203125 138.539062 L 375.0625 138.539062 L 375.0625 236.460938 L 0.203125 236.460938 Z M 0.203125 138.539062 " fill-opacity="1" fill-rule="nonzero"/></g><g clip-path="url(#bb5a690514)"><path stroke-linecap="butt" transform="matrix(0.75, 0, 0, 0.75, 0.202555, 138.539463)" fill="none" stroke-linejoin="miter" d="M 0.00075945 -0.00053387 L 499.703917 -0.00053387 L 499.703917 130.561975 L 0.00075945 130.561975 Z M 0.00075945 -0.00053387 " stroke="#000000" stroke-width="8" stroke-opacity="1" stroke-miterlimit="4"/></g><g clip-path="url(#561af0dd8f)"><path fill="#000000" d="M 0.203125 147.742188 L 191.234375 147.742188 L 191.234375 227.257812 L 0.203125 227.257812 Z M 0.203125 147.742188 " fill-opacity="1" fill-rule="nonzero"/></g><g clip-path="url(#36961c5736)"><g clip-path="url(#81a3023d3b)"><path fill="#ff3131" d="M 312.816406 166.046875 L 361.929688 166.046875 L 361.929688 208.953125 L 312.816406 208.953125 Z M 312.816406 166.046875 " fill-opacity="1" fill-rule="nonzero"/></g></g><g fill="#ffffff" fill-opacity="1"><g transform="translate(0.202555, 200.166109)"><g><path d="M 3.890625 0 L 3.890625 -26.703125 L 12.9375 -26.703125 C 14.945312 -26.703125 16.691406 -26.332031 18.171875 -25.59375 C 19.660156 -24.863281 20.8125 -23.828125 21.625 -22.484375 C 22.445312 -21.148438 22.859375 -19.570312 22.859375 -17.75 C 22.859375 -15.914062 22.445312 -14.328125 21.625 -12.984375 C 20.8125 -11.648438 19.660156 -10.613281 18.171875 -9.875 C 16.691406 -9.144531 14.945312 -8.78125 12.9375 -8.78125 L 7.25 -8.78125 L 7.25 0 Z M 7.25 -11.90625 L 12.859375 -11.90625 C 17.234375 -11.90625 19.421875 -13.835938 19.421875 -17.703125 C 19.421875 -21.566406 17.234375 -23.5 12.859375 -23.5 L 7.25 -23.5 Z M 7.25 -11.90625 "/></g></g></g><g fill="#ffffff" fill-opacity="1"><g transform="translate(27.484917, 200.166109)"><g><path d="M 0.65625 0 L 11.640625 -26.703125 L 14.765625 -26.703125 L 25.75 0 L 22.203125 0 L 19.6875 -6.0625 L 6.671875 -6.0625 L 4.234375 0 Z M 7.96875 -9.203125 L 18.421875 -9.203125 L 13.203125 -22.015625 Z M 7.96875 -9.203125 "/></g></g></g><g fill="#ffffff" fill-opacity="1"><g transform="translate(56.789551, 200.166109)"><g><path d="M 10.34375 0 L 10.34375 -23.5 L 1.296875 -23.5 L 1.296875 -26.703125 L 22.703125 -26.703125 L 22.703125 -23.5 L 13.703125 -23.5 L 13.703125 0 Z M 10.34375 0 "/></g></g></g><g fill="#ffffff" fill-opacity="1"><g transform="translate(83.728512, 200.166109)"><g><path d="M 3.890625 0 L 3.890625 -26.703125 L 7.25 -26.703125 L 7.25 0 Z M 3.890625 0 "/></g></g></g><g fill="#ffffff" fill-opacity="1"><g transform="translate(97.770664, 200.166109)"><g><path d="M 3.890625 0 L 3.890625 -26.703125 L 20.109375 -26.703125 L 20.109375 -23.578125 L 7.25 -23.578125 L 7.25 -15.140625 L 19.15625 -15.140625 L 19.15625 -12.0625 L 7.25 -12.0625 L 7.25 -3.125 L 20.53125 -3.125 L 20.53125 0 Z M 3.890625 0 "/></g></g></g><g fill="#ffffff" fill-opacity="1"><g transform="translate(123.6794, 200.166109)"><g><path d="M 3.890625 0 L 3.890625 -26.703125 L 7.0625 -26.703125 L 21.828125 -5.796875 L 21.828125 -26.703125 L 25.109375 -26.703125 L 25.109375 0 L 21.984375 0 L 7.21875 -20.90625 L 7.21875 0 Z M 3.890625 0 "/></g></g></g><g fill="#ffffff" fill-opacity="1"><g transform="translate(155.578659, 200.166109)"><g><path d="M 10.34375 0 L 10.34375 -23.5 L 1.296875 -23.5 L 1.296875 -26.703125 L 22.703125 -26.703125 L 22.703125 -23.5 L 13.703125 -23.5 L 13.703125 0 Z M 10.34375 0 "/></g></g></g><g fill="#000000" fill-opacity="1"><g transform="translate(191.349088, 200.166109)"><g><path d="M 2.828125 0 L 2.828125 -26.703125 L 14.078125 -26.703125 C 16.335938 -26.703125 18.300781 -26.296875 19.96875 -25.484375 C 21.632812 -24.671875 22.921875 -23.515625 23.828125 -22.015625 C 24.734375 -20.515625 25.1875 -18.734375 25.1875 -16.671875 C 25.1875 -14.640625 24.734375 -12.863281 23.828125 -11.34375 C 22.921875 -9.832031 21.632812 -8.660156 19.96875 -7.828125 C 18.300781 -7.003906 16.335938 -6.59375 14.078125 -6.59375 L 10.53125 -6.59375 L 10.53125 0 Z M 10.453125 -13.046875 L 13.359375 -13.046875 C 14.628906 -13.046875 15.617188 -13.363281 16.328125 -14 C 17.046875 -14.632812 17.40625 -15.515625 17.40625 -16.640625 C 17.40625 -17.753906 17.046875 -18.628906 16.328125 -19.265625 C 15.617188 -19.898438 14.628906 -20.21875 13.359375 -20.21875 L 10.453125 -20.21875 Z M 10.453125 -13.046875 "/></g></g></g><g fill="#000000" fill-opacity="1"><g transform="translate(217.409778, 200.166109)"><g><path d="M 2.828125 0 L 2.828125 -26.703125 L 10.53125 -26.703125 L 10.53125 -7.140625 L 21.4375 -7.140625 L 21.4375 0 Z M 2.828125 0 "/></g></g></g><g fill="#000000" fill-opacity="1"><g transform="translate(239.807478, 200.166109)"><g><path d="M 14.3125 0.578125 C 11.914062 0.578125 9.835938 0.113281 8.078125 -0.8125 C 6.328125 -1.75 4.972656 -3.082031 4.015625 -4.8125 C 3.066406 -6.539062 2.59375 -8.597656 2.59375 -10.984375 L 2.59375 -26.703125 L 10.296875 -26.703125 L 10.296875 -11.484375 C 10.296875 -8.253906 11.632812 -6.640625 14.3125 -6.640625 C 16.976562 -6.640625 18.3125 -8.253906 18.3125 -11.484375 L 18.3125 -26.703125 L 25.984375 -26.703125 L 25.984375 -10.984375 C 25.984375 -8.597656 25.507812 -6.539062 24.5625 -4.8125 C 23.625 -3.082031 22.285156 -1.75 20.546875 -0.8125 C 18.804688 0.113281 16.726562 0.578125 14.3125 0.578125 Z M 14.3125 0.578125 "/></g></g></g><g fill="#000000" fill-opacity="1"><g transform="translate(268.424629, 200.166109)"><g><path d="M 12.40625 0.578125 C 8.945312 0.578125 6.234375 -0.238281 4.265625 -1.875 C 2.304688 -3.519531 1.328125 -5.78125 1.328125 -8.65625 L 8.78125 -8.65625 C 8.78125 -7.644531 9.085938 -6.851562 9.703125 -6.28125 C 10.328125 -5.707031 11.1875 -5.421875 12.28125 -5.421875 C 13.226562 -5.421875 13.96875 -5.601562 14.5 -5.96875 C 15.03125 -6.34375 15.296875 -6.859375 15.296875 -7.515625 C 15.296875 -8.992188 13.695312 -10.050781 10.5 -10.6875 C 4.519531 -11.832031 1.53125 -14.640625 1.53125 -19.109375 C 1.53125 -21.628906 2.4375 -23.617188 4.25 -25.078125 C 6.070312 -26.546875 8.5625 -27.28125 11.71875 -27.28125 C 13.90625 -27.28125 15.804688 -26.910156 17.421875 -26.171875 C 19.035156 -25.429688 20.28125 -24.378906 21.15625 -23.015625 C 22.03125 -21.660156 22.46875 -20.066406 22.46875 -18.234375 L 15.21875 -18.234375 C 15.21875 -19.253906 14.925781 -20.03125 14.34375 -20.5625 C 13.757812 -21.101562 12.929688 -21.375 11.859375 -21.375 C 10.972656 -21.375 10.257812 -21.1875 9.71875 -20.8125 C 9.1875 -20.445312 8.921875 -19.929688 8.921875 -19.265625 C 8.921875 -18.578125 9.273438 -18.003906 9.984375 -17.546875 C 10.703125 -17.085938 11.914062 -16.671875 13.625 -16.296875 C 16.875 -15.578125 19.242188 -14.535156 20.734375 -13.171875 C 22.222656 -11.816406 22.96875 -10.035156 22.96875 -7.828125 C 22.96875 -5.203125 22.039062 -3.144531 20.1875 -1.65625 C 18.332031 -0.164062 15.738281 0.578125 12.40625 0.578125 Z M 12.40625 0.578125 "/></g></g></g></svg>