<svg width="20" height="20" viewBox="0 0 20 20" fill="none" xmlns="http://www.w3.org/2000/svg">
<path d="M11.9157 18.2681L9.84895 16.8627C7.20932 15.0678 4.93225 12.7907 3.1373 10.1511L1.73188 8.08426C0.477977 6.24028 0.872045 3.73943 2.63223 2.3704L3.53514 1.66814C4.98923 0.537177 7.09777 0.879344 8.1196 2.41209L8.55882 3.07092C8.96564 3.68114 9.01429 4.46257 8.6863 5.11854C8.08292 6.32531 8.11392 7.7521 8.76915 8.93152L8.93393 9.22812C9.36296 10.0004 9.99964 10.637 10.7719 11.0661L11.0685 11.2308C12.2479 11.8861 13.6747 11.9171 14.8815 11.3137C15.5374 10.9857 16.3189 11.0344 16.9291 11.4412L17.5879 11.8804C19.1207 12.9022 19.4628 15.0108 18.3319 16.4649L17.6296 17.3678C16.2606 19.128 13.7597 19.522 11.9157 18.2681Z" stroke="#CDE9DF" stroke-width="1.5" stroke-linecap="round"/>
</svg>
